<svg width="646.076" height="89.889" viewBox="0 0 646.076 89.889" xmlns="http://www.w3.org/2000/svg"><g id="svgGroup" stroke-linecap="round" fill-rule="evenodd" font-size="9pt" stroke="#000" stroke-width="0.25mm" fill="#000" style="stroke:#000;stroke-width:0.25mm;fill:#000"><path d="M 500.52 75.614 Q 499.22 75.714 498.17 75.064 Q 497.12 74.414 496.72 73.414 Q 496.32 72.914 495.52 71.714 Q 494.72 70.514 494.52 69.314 Q 494.22 66.114 494.17 63.114 Q 494.12 60.114 494.42 54.714 Q 494.72 50.314 495.57 46.164 Q 496.42 42.014 497.27 38.714 Q 498.12 35.414 498.62 33.464 Q 499.12 31.514 498.82 31.514 Q 498.42 31.514 497.62 32.964 Q 496.82 34.414 495.82 36.514 Q 494.82 38.614 493.82 40.664 Q 492.82 42.714 492.12 44.014 Q 490.72 47.114 488.87 50.564 Q 487.02 54.014 485.12 57.214 Q 483.22 60.414 481.82 62.814 Q 480.92 63.814 479.72 65.664 Q 478.52 67.514 477.12 69.514 Q 475.72 71.514 474.22 72.814 Q 472.02 74.914 469.87 75.114 Q 467.72 75.314 466.22 74.014 Q 465.92 73.614 465.57 73.064 Q 465.22 72.514 465.02 71.614 Q 464.82 70.714 465.12 69.514 Q 465.02 68.114 465.17 65.164 Q 465.32 62.214 465.72 58.664 Q 466.12 55.114 466.57 51.814 Q 467.02 48.514 467.42 46.314 Q 468.32 39.914 469.87 33.214 Q 471.42 26.514 472.72 19.714 Q 473.52 17.714 474.17 15.164 Q 474.82 12.614 475.52 10.414 Q 475.62 8.214 476.52 7.464 Q 477.42 6.714 478.57 6.964 Q 479.72 7.214 480.42 8.214 Q 481.42 9.214 481.97 11.314 Q 482.52 13.414 481.12 16.614 Q 479.12 21.514 477.27 28.564 Q 475.42 35.614 473.92 45.614 Q 473.52 48.014 473.02 51.314 Q 472.52 54.614 472.12 57.714 Q 471.72 60.814 471.57 62.914 Q 471.42 65.014 471.62 65.114 Q 472.42 65.314 473.82 63.864 Q 475.22 62.414 476.32 60.014 Q 480.42 53.214 484.47 45.764 Q 488.52 38.314 492.22 31.014 Q 493.92 28.114 495.67 24.664 Q 497.42 21.214 499.02 18.314 Q 500.72 15.314 502.12 12.864 Q 503.52 10.414 504.52 8.814 Q 505.52 7.214 506.12 7.014 Q 507.72 7.114 508.87 7.764 Q 510.02 8.414 510.82 10.414 Q 511.02 10.914 510.72 12.114 Q 510.42 13.314 510.02 14.214 Q 509.92 14.914 509.17 17.114 Q 508.42 19.314 507.82 22.014 Q 506.82 24.714 506.07 27.364 Q 505.32 30.014 505.02 31.714 Q 504.22 36.014 503.02 41.164 Q 501.82 46.314 500.97 51.364 Q 500.12 56.414 500.02 60.414 Q 499.92 63.214 500.07 64.814 Q 500.22 66.414 500.62 67.314 Q 500.82 68.114 501.87 68.314 Q 502.92 68.514 503.62 67.614 Q 505.62 65.114 507.07 63.064 Q 508.52 61.014 509.82 58.864 Q 511.12 56.714 512.52 54.014 Q 515.02 49.414 517.67 43.764 Q 520.32 38.114 522.77 32.514 Q 525.22 26.914 527.02 22.714 Q 528.92 17.314 530.07 14.114 Q 531.22 10.914 532.12 9.314 Q 533.02 7.714 534.02 7.114 Q 534.52 6.714 535.42 6.714 Q 536.32 6.714 537.22 7.514 Q 537.62 7.914 537.97 8.764 Q 538.32 9.614 538.22 10.814 Q 537.72 12.414 536.47 15.914 Q 535.22 19.414 533.62 23.614 Q 532.02 27.814 530.52 31.614 Q 529.02 35.414 527.92 37.714 Q 526.82 39.814 525.82 41.314 Q 524.82 42.814 524.82 43.614 Q 524.82 44.014 523.82 46.064 Q 522.82 48.114 521.27 51.014 Q 519.72 53.914 517.92 57.014 Q 516.12 60.114 514.52 62.714 Q 512.92 65.314 511.82 66.714 Q 509.32 69.814 506.97 71.814 Q 504.62 73.814 502.92 74.714 Q 501.22 75.614 500.52 75.614 Z M 21.72 11.214 L 22.42 7.914 L 21.32 7.414 Q 20.12 7.814 19.47 7.664 Q 18.82 7.514 18.62 7.414 Q 18.02 7.614 16.92 7.114 Q 15.82 6.614 14.97 5.814 Q 14.12 5.014 13.92 4.414 Q 13.72 4.014 13.67 3.364 L 13.62 2.714 Q 13.72 2.114 15.12 1.564 Q 16.52 1.014 18.77 0.614 Q 21.02 0.214 23.67 0.064 Q 26.32 -0.086 28.82 0.114 Q 31.42 0.314 33.72 1.214 Q 36.02 2.114 38.72 3.114 Q 41.92 4.314 45.47 7.264 Q 49.02 10.214 51.97 14.214 Q 54.92 18.214 55.92 22.614 Q 56.22 23.814 56.52 26.014 Q 56.82 28.214 56.87 30.264 Q 56.92 32.314 56.42 32.914 Q 56.22 33.314 56.17 33.864 Q 56.12 34.414 56.52 34.614 Q 56.42 34.914 55.82 36.864 Q 55.22 38.814 54.72 40.214 Q 54.52 42.814 53.52 45.614 Q 52.52 48.414 51.32 50.864 Q 50.12 53.314 49.12 55.014 Q 48.72 55.014 48.37 55.164 Q 48.02 55.314 48.42 55.414 Q 48.42 55.914 47.32 57.314 Q 46.92 57.614 46.07 58.764 Q 45.22 59.914 44.72 60.314 Q 44.62 61.014 44.12 61.464 Q 43.62 61.914 43.22 61.914 L 43.07 61.914 Q 42.92 61.914 42.92 62.314 Q 42.12 63.514 40.42 65.164 Q 38.72 66.814 36.57 68.564 Q 34.42 70.314 32.17 71.814 Q 29.92 73.314 27.92 74.114 Q 26.92 74.814 25.82 75.264 Q 24.72 75.714 23.72 76.214 Q 23.22 76.614 21.52 77.364 Q 19.82 78.114 17.87 78.814 Q 15.92 79.514 14.42 79.814 Q 12.52 80.114 10.92 80.164 Q 9.32 80.214 6.22 79.414 Q 4.62 78.914 3.97 78.214 Q 3.32 77.514 1.82 75.614 Q 0.72 74.014 0.27 72.664 Q -0.18 71.314 0.12 70.564 Q 0.42 69.814 1.42 70.114 Q 1.72 70.214 2.37 70.764 Q 3.02 71.314 3.62 72.114 Q 5.02 73.614 7.02 74.114 Q 9.02 74.614 12.32 74.214 Q 13.72 73.914 15.72 73.364 Q 17.72 72.814 19.62 72.014 Q 21.52 71.214 22.62 70.414 Q 27.92 66.814 31.12 64.714 L 34.32 62.614 Q 34.52 62.214 35.07 61.964 Q 35.62 61.714 36.42 61.414 Q 37.02 60.814 38.37 59.514 Q 39.72 58.214 40.97 56.914 Q 42.22 55.614 42.52 55.414 Q 42.72 54.514 42.92 53.964 Q 43.12 53.414 43.12 52.814 Q 43.92 52.014 45.27 49.464 Q 46.62 46.914 48.02 43.764 Q 49.42 40.614 50.02 38.014 Q 51.42 31.014 50.72 26.214 Q 50.02 21.414 47.87 17.964 Q 45.72 14.514 42.52 11.814 Q 41.42 10.914 39.47 9.864 Q 37.52 8.814 35.42 8.014 Q 33.32 7.214 31.77 6.714 Q 30.22 6.214 29.92 6.314 Q 29.52 6.414 28.27 9.464 Q 27.02 12.514 25.32 17.214 Q 23.62 21.914 21.67 27.214 Q 19.72 32.514 18.02 37.214 Q 17.42 39.114 16.72 41.214 Q 16.02 43.314 15.52 44.864 Q 15.02 46.414 15.02 46.914 Q 13.92 48.614 13.27 51.414 Q 12.62 54.214 11.82 60.714 Q 10.92 64.114 10.52 65.864 Q 10.12 67.614 9.72 67.514 L 9.67 67.564 L 9.32 67.914 Q 9.32 68.514 8.52 68.514 Q 7.72 68.514 6.67 68.064 Q 5.62 67.614 5.02 67.014 Q 4.72 65.914 4.67 64.914 Q 4.62 63.914 5.42 61.014 Q 5.92 59.114 6.67 56.364 Q 7.42 53.614 8.32 50.664 Q 9.22 47.714 10.02 45.214 Q 10.82 42.714 11.22 41.414 Q 11.92 39.714 13.22 35.014 Q 14.02 32.414 14.87 29.814 Q 15.72 27.214 16.52 25.164 Q 17.32 23.114 17.62 22.514 Q 18.12 21.214 19.12 18.114 Q 20.12 15.014 21.72 11.214 Z M 278.62 38.714 Q 278.32 39.414 276.32 39.814 Q 274.32 40.214 269.92 40.714 Q 268.62 40.814 266.07 40.914 Q 263.52 41.014 260.57 41.114 Q 257.62 41.214 255.22 41.164 Q 252.82 41.114 251.92 40.914 L 251.47 41.414 Q 251.02 41.914 251.02 42.714 Q 250.32 43.914 249.27 46.414 Q 248.22 48.914 246.97 51.914 Q 245.72 54.914 244.67 57.914 Q 243.62 60.914 242.92 63.114 Q 242.22 65.314 242.22 66.114 Q 241.32 68.514 241.12 70.214 Q 240.92 71.914 240.42 72.214 Q 240.32 72.614 239.12 72.414 Q 237.92 72.214 237.12 71.314 Q 235.92 70.414 235.77 69.664 Q 235.62 68.914 236.32 66.714 Q 236.62 65.414 237.37 62.864 Q 238.12 60.314 239.07 57.214 Q 240.02 54.114 241.07 51.164 Q 242.12 48.214 243.12 46.314 Q 244.22 44.414 244.52 42.864 Q 244.82 41.314 245.32 40.014 Q 245.22 38.914 245.32 38.514 Q 245.42 38.114 246.12 37.314 Q 246.62 36.914 247.37 35.864 Q 248.12 34.814 249.12 32.614 Q 249.42 31.614 250.07 29.864 Q 250.72 28.114 251.32 26.264 Q 251.92 24.414 252.42 23.114 Q 252.92 21.814 252.92 21.714 Q 253.12 21.314 253.52 20.164 Q 253.92 19.014 254.12 18.314 Q 254.52 16.914 254.77 16.014 Q 255.02 15.114 254.62 15.114 Q 253.82 15.314 251.42 15.414 Q 250.22 15.614 249.67 15.664 Q 249.12 15.714 248.72 15.814 Q 247.72 15.914 246.92 15.614 Q 246.12 15.314 246.12 14.414 Q 246.32 12.814 247.27 11.764 Q 248.22 10.714 249.72 10.614 Q 250.42 10.414 251.27 10.264 Q 252.12 10.114 253.62 9.714 Q 255.52 9.314 256.57 9.064 Q 257.62 8.814 258.22 9.014 Q 258.72 8.714 259.12 8.364 Q 259.52 8.014 259.52 7.614 Q 259.52 7.114 259.97 6.864 Q 260.42 6.614 261.02 6.564 Q 261.62 6.514 262.27 6.714 Q 262.92 6.914 263.22 7.414 Q 263.42 7.714 264.12 7.914 Q 264.82 8.114 266.67 7.864 Q 268.52 7.614 271.92 6.914 Q 273.72 6.714 276.47 6.514 Q 279.22 6.314 280.82 6.814 Q 282.52 6.514 283.87 6.564 Q 285.22 6.614 285.72 6.214 Q 287.82 6.614 288.77 6.764 Q 289.72 6.914 290.32 7.414 Q 290.72 7.814 290.57 8.164 L 290.42 8.514 Q 290.02 8.314 290.52 8.564 Q 291.02 8.814 291.22 9.014 Q 291.92 9.314 292.12 9.764 Q 292.32 10.214 292.32 10.614 Q 292.32 11.014 292.22 11.314 Q 292.12 12.214 291.22 12.364 Q 290.32 12.514 286.72 12.414 Q 282.42 11.814 278.27 11.964 Q 274.12 12.114 268.62 12.914 Q 266.62 13.014 265.07 13.464 Q 263.52 13.914 263.32 13.914 Q 262.92 13.914 261.92 15.264 Q 260.92 16.614 260.02 19.214 Q 259.62 19.914 258.62 22.414 Q 257.62 24.914 256.47 27.814 Q 255.32 30.714 254.47 32.914 Q 253.62 35.114 253.42 35.314 Q 254.82 35.714 257.97 35.714 Q 261.12 35.714 264.97 35.464 Q 268.82 35.214 272.02 34.914 Q 273.52 34.614 275.17 34.364 Q 276.82 34.114 277.32 34.314 Q 277.82 34.614 278.22 35.464 Q 278.62 36.314 278.77 37.214 Q 278.92 38.114 278.62 38.714 Z M 151.52 55.414 L 152.12 55.414 Q 149.92 56.814 148.22 58.614 Q 146.52 60.414 143.92 61.514 Q 143.32 62.214 140.97 62.364 Q 138.62 62.514 136.42 61.814 Q 135.02 61.014 134.37 60.614 Q 133.72 60.214 133.37 59.514 Q 133.02 58.814 132.42 57.314 Q 131.72 55.814 132.22 52.414 Q 132.72 49.014 134.02 45.614 Q 135.22 43.114 137.52 40.214 Q 139.82 37.314 142.42 34.964 Q 145.02 32.614 147.12 32.014 Q 147.92 31.614 148.87 31.464 Q 149.82 31.314 151.62 31.814 Q 153.32 32.014 154.22 32.564 Q 155.12 33.114 157.12 34.814 Q 158.42 36.114 159.27 37.414 Q 160.12 38.714 160.62 40.114 Q 161.32 41.614 161.17 42.864 Q 161.02 44.114 160.02 45.414 Q 159.12 46.714 158.12 48.014 Q 157.12 49.314 156.62 51.614 Q 156.12 54.614 155.02 58.364 Q 153.92 62.114 153.12 65.314 L 151.52 71.514 Q 149.02 80.014 146.77 84.164 Q 144.52 88.314 142.52 89.414 Q 139.72 90.514 136.67 89.064 Q 133.62 87.614 131.42 84.514 Q 131.02 83.914 130.47 82.664 Q 129.92 81.414 129.47 80.114 Q 129.02 78.814 128.92 77.814 Q 128.82 76.814 129.12 76.614 Q 129.42 76.314 130.12 76.414 Q 130.82 76.514 131.47 76.914 Q 132.12 77.314 132.32 77.914 Q 132.62 78.614 133.27 79.714 Q 133.92 80.814 134.72 81.714 Q 135.52 82.614 135.92 82.714 Q 137.82 83.614 138.72 83.514 Q 139.62 83.414 140.32 82.914 Q 142.02 81.614 143.12 79.514 Q 144.22 77.414 145.62 73.014 Q 146.72 69.314 147.87 65.164 Q 149.02 61.014 149.92 58.714 Q 150.22 57.514 150.67 56.664 Q 151.12 55.814 151.52 55.414 Z M 418.72 60.114 L 418.92 58.014 L 415.02 61.114 Q 411.62 64.114 408.47 65.414 Q 405.32 66.714 402.92 66.714 Q 401.82 66.514 400.72 65.914 Q 399.62 65.314 398.77 64.414 Q 397.92 63.514 397.42 62.514 Q 396.82 61.114 397.07 58.714 Q 397.32 56.314 398.27 53.464 Q 399.22 50.614 400.67 47.864 Q 402.12 45.114 404.02 43.014 Q 407.32 38.014 411.12 36.914 Q 414.92 35.814 418.62 38.014 Q 421.22 39.114 421.87 39.014 Q 422.52 38.914 423.02 36.714 Q 423.42 35.114 423.82 33.464 Q 424.22 31.814 425.12 29.014 Q 427.62 21.414 429.47 17.114 Q 431.32 12.814 432.82 9.614 Q 433.92 7.314 434.67 6.764 Q 435.42 6.214 436.22 6.314 Q 437.32 6.314 438.22 7.114 Q 439.12 7.914 439.62 9.314 Q 440.02 10.214 439.97 10.864 Q 439.92 11.514 439.32 12.614 Q 438.02 15.014 436.27 18.964 Q 434.52 22.914 432.77 27.614 Q 431.02 32.314 429.52 36.914 Q 428.02 41.514 427.02 45.014 Q 426.42 47.214 425.97 50.614 Q 425.52 54.014 425.22 57.564 Q 424.92 61.114 424.87 63.864 Q 424.82 66.614 425.02 67.414 Q 425.62 69.414 425.57 70.414 Q 425.52 71.414 425.02 71.764 Q 424.52 72.114 423.42 72.214 Q 422.12 72.514 421.27 71.864 Q 420.42 71.214 420.02 70.014 Q 419.22 67.714 418.87 64.964 Q 418.52 62.214 418.72 60.114 Z M 624.82 60.114 L 625.02 58.014 L 621.12 61.114 Q 617.72 64.114 614.57 65.414 Q 611.42 66.714 609.02 66.714 Q 607.92 66.514 606.82 65.914 Q 605.72 65.314 604.87 64.414 Q 604.02 63.514 603.52 62.514 Q 602.92 61.114 603.17 58.714 Q 603.42 56.314 604.37 53.464 Q 605.32 50.614 606.77 47.864 Q 608.22 45.114 610.12 43.014 Q 613.42 38.014 617.22 36.914 Q 621.02 35.814 624.72 38.014 Q 627.32 39.114 627.97 39.014 Q 628.62 38.914 629.12 36.714 Q 629.52 35.114 629.92 33.464 Q 630.32 31.814 631.22 29.014 Q 633.72 21.414 635.57 17.114 Q 637.42 12.814 638.92 9.614 Q 640.02 7.314 640.77 6.764 Q 641.52 6.214 642.32 6.314 Q 643.42 6.314 644.32 7.114 Q 645.22 7.914 645.72 9.314 Q 646.12 10.214 646.07 10.864 Q 646.02 11.514 645.42 12.614 Q 644.12 15.014 642.37 18.964 Q 640.62 22.914 638.87 27.614 Q 637.12 32.314 635.62 36.914 Q 634.12 41.514 633.12 45.014 Q 632.52 47.214 632.07 50.614 Q 631.62 54.014 631.32 57.564 Q 631.02 61.114 630.97 63.864 Q 630.92 66.614 631.12 67.414 Q 631.72 69.414 631.67 70.414 Q 631.62 71.414 631.12 71.764 Q 630.62 72.114 629.52 72.214 Q 628.22 72.514 627.37 71.864 Q 626.52 71.214 626.12 70.014 Q 625.32 67.714 624.97 64.964 Q 624.62 62.214 624.82 60.114 Z M 185.32 70.714 Q 183.42 69.914 181.72 68.564 Q 180.02 67.214 179.52 66.314 Q 179.52 65.414 179.82 65.064 Q 180.12 64.714 181.57 64.764 Q 183.02 64.814 186.32 65.214 Q 187.52 65.214 189.32 65.014 Q 191.12 64.814 192.67 64.414 Q 194.22 64.014 194.42 63.414 Q 194.92 63.414 194.62 63.064 Q 194.32 62.714 193.92 62.314 Q 193.52 62.314 193.02 61.964 Q 192.52 61.614 192.12 61.614 Q 192.12 61.114 191.17 60.464 Q 190.22 59.814 189.22 59.414 Q 187.02 57.614 185.42 56.164 Q 183.82 54.714 184.22 54.214 L 184.22 53.764 L 184.22 53.714 Q 183.52 53.714 182.67 51.714 Q 181.82 49.714 181.82 48.114 Q 181.82 46.914 182.52 45.064 Q 183.22 43.214 184.42 41.214 Q 185.62 39.214 186.92 37.914 Q 188.72 36.214 191.42 34.264 Q 194.12 32.314 196.77 30.764 Q 199.42 29.214 201.22 28.714 Q 203.02 28.014 204.57 28.014 Q 206.12 28.014 207.32 28.714 Q 208.32 29.214 209.17 30.164 Q 210.02 31.114 210.67 32.064 Q 211.32 33.014 211.52 33.714 Q 211.52 34.914 211.32 36.364 Q 211.12 37.814 210.77 38.914 Q 210.42 40.014 209.72 40.014 L 209.47 40.064 Q 209.22 40.114 209.22 40.614 Q 209.22 41.614 207.72 42.914 Q 205.82 44.214 204.42 44.464 Q 203.02 44.714 202.72 43.414 Q 202.42 43.014 202.32 42.714 Q 202.22 42.414 201.82 42.414 L 201.52 42.114 Q 201.22 41.814 201.22 41.114 Q 201.22 40.714 201.52 40.364 L 201.82 40.014 Q 202.32 40.014 203.12 38.864 Q 203.92 37.714 204.57 36.364 Q 205.22 35.014 205.22 34.514 Q 205.22 33.914 205.07 33.814 Q 204.92 33.714 204.12 33.714 Q 202.72 34.314 200.72 35.314 Q 198.72 36.314 196.97 37.264 Q 195.22 38.214 194.42 39.014 Q 194.02 39.714 193.92 39.864 Q 193.82 40.014 193.42 40.014 Q 193.42 39.614 192.77 40.364 Q 192.12 41.114 191.17 42.414 Q 190.22 43.714 189.37 44.964 Q 188.52 46.214 188.12 46.814 Q 187.92 47.014 187.67 47.964 Q 187.42 48.914 187.42 49.714 Q 187.02 50.914 187.52 51.364 Q 188.02 51.814 189.72 53.214 Q 193.22 55.814 195.22 57.514 Q 197.22 59.214 198.22 60.314 Q 199.22 61.414 199.42 62.314 Q 201.22 65.314 200.52 66.914 Q 199.82 68.514 197.12 69.714 Q 196.12 70.214 193.82 70.514 Q 191.52 70.814 189.12 70.864 Q 186.72 70.914 185.32 70.714 Z M 122.92 34.914 L 124.52 34.814 Q 124.92 34.714 125.07 35.264 Q 125.22 35.814 125.72 36.214 Q 126.82 37.114 126.32 40.114 Q 125.82 43.114 123.52 48.514 Q 121.62 52.614 120.97 54.714 Q 120.32 56.814 120.22 58.814 Q 120.22 60.614 120.92 62.214 Q 121.62 63.814 123.12 65.114 Q 124.22 65.814 124.37 66.714 Q 124.52 67.614 124.42 68.814 Q 124.22 69.714 123.27 70.264 Q 122.32 70.814 121.12 70.814 Q 119.92 70.814 118.92 70.114 Q 117.92 69.114 116.92 67.364 Q 115.92 65.614 115.32 63.314 Q 115.12 62.514 115.17 61.114 Q 115.22 59.714 115.12 59.114 Q 114.82 59.814 114.17 60.564 Q 113.52 61.314 112.92 61.814 Q 112.52 62.214 111.12 63.364 Q 109.72 64.514 108.32 65.214 Q 105.02 67.314 102.87 67.514 Q 100.72 67.714 98.82 65.314 Q 97.22 64.014 96.57 62.414 Q 95.92 60.814 96.52 58.014 Q 96.72 54.514 97.52 51.164 Q 98.32 47.814 100.82 42.214 Q 102.92 38.114 104.02 36.164 Q 105.12 34.214 105.42 33.814 Q 106.92 33.314 107.92 33.864 Q 108.92 34.414 109.12 35.814 Q 109.72 36.814 108.97 39.214 Q 108.22 41.614 106.42 45.114 Q 105.02 48.514 103.87 51.914 Q 102.72 55.314 102.52 57.714 Q 102.32 60.114 103.72 60.614 Q 104.62 61.114 106.87 60.314 Q 109.12 59.514 111.97 56.314 Q 114.82 53.114 117.52 46.614 Q 118.32 44.614 118.72 43.064 Q 119.12 41.514 119.22 39.614 Q 119.02 38.414 119.37 37.464 Q 119.72 36.514 120.92 35.814 Q 121.32 35.314 122.02 34.864 Q 122.72 34.414 122.92 34.914 Z M 343.12 34.914 L 344.72 34.814 Q 345.12 34.714 345.27 35.264 Q 345.42 35.814 345.92 36.214 Q 347.02 37.114 346.52 40.114 Q 346.02 43.114 343.72 48.514 Q 341.82 52.614 341.17 54.714 Q 340.52 56.814 340.42 58.814 Q 340.42 60.614 341.12 62.214 Q 341.82 63.814 343.32 65.114 Q 344.42 65.814 344.57 66.714 Q 344.72 67.614 344.62 68.814 Q 344.42 69.714 343.47 70.264 Q 342.52 70.814 341.32 70.814 Q 340.12 70.814 339.12 70.114 Q 338.12 69.114 337.12 67.364 Q 336.12 65.614 335.52 63.314 Q 335.32 62.514 335.37 61.114 Q 335.42 59.714 335.32 59.114 Q 335.02 59.814 334.37 60.564 Q 333.72 61.314 333.12 61.814 Q 332.72 62.214 331.32 63.364 Q 329.92 64.514 328.52 65.214 Q 325.22 67.314 323.07 67.514 Q 320.92 67.714 319.02 65.314 Q 317.42 64.014 316.77 62.414 Q 316.12 60.814 316.72 58.014 Q 316.92 54.514 317.72 51.164 Q 318.52 47.814 321.02 42.214 Q 323.12 38.114 324.22 36.164 Q 325.32 34.214 325.62 33.814 Q 327.12 33.314 328.12 33.864 Q 329.12 34.414 329.32 35.814 Q 329.92 36.814 329.17 39.214 Q 328.42 41.614 326.62 45.114 Q 325.22 48.514 324.07 51.914 Q 322.92 55.314 322.72 57.714 Q 322.52 60.114 323.92 60.614 Q 324.82 61.114 327.07 60.314 Q 329.32 59.514 332.17 56.314 Q 335.02 53.114 337.72 46.614 Q 338.52 44.614 338.92 43.064 Q 339.32 41.514 339.42 39.614 Q 339.22 38.414 339.57 37.464 Q 339.92 36.514 341.12 35.814 Q 341.52 35.314 342.22 34.864 Q 342.92 34.414 343.12 34.914 Z M 387.62 65.714 Q 385.62 65.714 384.32 64.864 Q 383.02 64.014 382.12 62.014 Q 381.72 60.614 381.47 58.864 Q 381.22 57.114 381.22 55.564 Q 381.22 54.014 381.52 53.514 Q 381.92 53.114 381.87 52.064 Q 381.82 51.014 381.82 49.814 Q 381.72 47.814 380.87 47.564 Q 380.02 47.314 378.42 48.214 Q 376.62 49.314 373.72 51.164 Q 370.82 53.014 367.67 55.214 Q 364.52 57.414 361.72 59.814 Q 359.52 62.214 359.07 63.464 Q 358.62 64.714 357.82 64.714 Q 357.02 65.114 356.47 64.764 Q 355.92 64.414 354.92 63.614 Q 354.22 62.814 353.52 62.064 Q 352.82 61.314 352.62 60.914 Q 352.62 60.414 352.92 58.814 Q 353.22 57.214 353.67 55.614 Q 354.12 54.014 354.32 53.514 Q 354.82 53.514 355.17 52.514 Q 355.52 51.514 356.32 50.314 Q 356.52 49.114 357.37 47.064 Q 358.22 45.014 358.92 43.414 Q 360.32 41.014 360.87 39.414 Q 361.42 37.814 361.62 35.414 Q 361.52 35.014 361.82 34.664 Q 362.12 34.314 362.52 34.314 Q 363.32 33.514 364.42 33.864 Q 365.52 34.214 366.42 35.414 Q 368.22 37.814 367.87 40.364 Q 367.52 42.914 364.62 47.614 Q 363.92 49.214 363.57 50.064 Q 363.22 50.914 363.22 51.414 L 364.27 50.714 Q 365.32 50.014 366.67 49.064 Q 368.02 48.114 368.82 47.614 Q 369.32 47.114 371.12 45.814 Q 372.92 44.514 374.97 43.264 Q 377.02 42.014 378.02 41.814 Q 378.82 41.414 379.72 41.064 Q 380.62 40.714 381.02 40.714 Q 381.82 40.714 383.07 41.564 Q 384.32 42.414 385.42 43.564 Q 386.52 44.714 386.72 45.514 Q 386.72 45.914 386.77 46.314 Q 386.82 46.714 386.92 47.114 Q 387.32 48.414 387.37 50.614 Q 387.42 52.814 387.22 54.614 Q 387.02 56.414 386.52 56.714 L 386.57 56.964 Q 386.62 57.214 387.02 57.214 L 387.02 57.664 L 387.02 57.714 Q 386.52 57.714 386.62 58.564 Q 386.72 59.414 387.27 60.414 Q 387.82 61.414 388.42 62.014 Q 389.62 63.214 389.42 64.264 Q 389.22 65.314 387.62 65.714 Z M 67.62 68.814 Q 66.32 68.814 65.57 68.314 Q 64.82 67.814 63.72 66.914 Q 61.82 64.914 61.02 63.064 Q 60.22 61.214 60.52 59.514 Q 60.82 58.714 60.77 57.964 L 60.72 57.214 Q 60.22 56.714 60.42 56.564 Q 60.62 56.414 60.82 56.014 Q 61.42 56.014 61.22 54.914 Q 61.02 54.114 62.02 51.414 Q 63.02 48.714 64.52 46.314 Q 65.12 45.314 66.32 43.664 Q 67.52 42.014 68.97 40.364 Q 70.42 38.714 71.62 37.714 Q 74.12 35.614 76.02 34.614 Q 77.92 33.614 80.12 33.114 Q 82.32 32.614 83.17 32.614 Q 84.02 32.614 85.52 34.214 Q 87.82 35.214 88.87 36.614 Q 89.92 38.014 90.22 40.714 Q 90.52 43.714 89.77 47.564 Q 89.02 51.414 85.02 57.114 Q 82.52 60.714 80.42 62.464 Q 78.32 64.214 75.42 65.914 Q 73.32 67.314 71.62 67.964 Q 69.92 68.614 67.62 68.814 Z M 287.82 68.814 Q 286.52 68.814 285.77 68.314 Q 285.02 67.814 283.92 66.914 Q 282.02 64.914 281.22 63.064 Q 280.42 61.214 280.72 59.514 Q 281.02 58.714 280.97 57.964 L 280.92 57.214 Q 280.42 56.714 280.62 56.564 Q 280.82 56.414 281.02 56.014 Q 281.62 56.014 281.42 54.914 Q 281.22 54.114 282.22 51.414 Q 283.22 48.714 284.72 46.314 Q 285.32 45.314 286.52 43.664 Q 287.72 42.014 289.17 40.364 Q 290.62 38.714 291.82 37.714 Q 294.32 35.614 296.22 34.614 Q 298.12 33.614 300.32 33.114 Q 302.52 32.614 303.37 32.614 Q 304.22 32.614 305.72 34.214 Q 308.02 35.214 309.07 36.614 Q 310.12 38.014 310.42 40.714 Q 310.72 43.714 309.97 47.564 Q 309.22 51.414 305.22 57.114 Q 302.72 60.714 300.62 62.464 Q 298.52 64.214 295.62 65.914 Q 293.52 67.314 291.82 67.964 Q 290.12 68.614 287.82 68.814 Z M 539.62 68.814 Q 538.32 68.814 537.57 68.314 Q 536.82 67.814 535.72 66.914 Q 533.82 64.914 533.02 63.064 Q 532.22 61.214 532.52 59.514 Q 532.82 58.714 532.77 57.964 L 532.72 57.214 Q 532.22 56.714 532.42 56.564 Q 532.62 56.414 532.82 56.014 Q 533.42 56.014 533.22 54.914 Q 533.02 54.114 534.02 51.414 Q 535.02 48.714 536.52 46.314 Q 537.12 45.314 538.32 43.664 Q 539.52 42.014 540.97 40.364 Q 542.42 38.714 543.62 37.714 Q 546.12 35.614 548.02 34.614 Q 549.92 33.614 552.12 33.114 Q 554.32 32.614 555.17 32.614 Q 556.02 32.614 557.52 34.214 Q 559.82 35.214 560.87 36.614 Q 561.92 38.014 562.22 40.714 Q 562.52 43.714 561.77 47.564 Q 561.02 51.414 557.02 57.114 Q 554.52 60.714 552.42 62.464 Q 550.32 64.214 547.42 65.914 Q 545.32 67.314 543.62 67.964 Q 541.92 68.614 539.62 68.814 Z M 574.92 68.814 Q 573.62 68.814 572.87 68.314 Q 572.12 67.814 571.02 66.914 Q 569.12 64.914 568.32 63.064 Q 567.52 61.214 567.82 59.514 Q 568.12 58.714 568.07 57.964 L 568.02 57.214 Q 567.52 56.714 567.72 56.564 Q 567.92 56.414 568.12 56.014 Q 568.72 56.014 568.52 54.914 Q 568.32 54.114 569.32 51.414 Q 570.32 48.714 571.82 46.314 Q 572.42 45.314 573.62 43.664 Q 574.82 42.014 576.27 40.364 Q 577.72 38.714 578.92 37.714 Q 581.42 35.614 583.32 34.614 Q 585.22 33.614 587.42 33.114 Q 589.62 32.614 590.47 32.614 Q 591.32 32.614 592.82 34.214 Q 595.12 35.214 596.17 36.614 Q 597.22 38.014 597.52 40.714 Q 597.82 43.714 597.07 47.564 Q 596.32 51.414 592.32 57.114 Q 589.82 60.714 587.72 62.464 Q 585.62 64.214 582.72 65.914 Q 580.62 67.314 578.92 67.964 Q 577.22 68.614 574.92 68.814 Z M 77.22 58.214 Q 79.62 55.514 81.07 53.114 Q 82.52 50.714 83.82 47.014 Q 84.22 45.914 84.32 44.264 Q 84.42 42.614 84.27 41.164 Q 84.12 39.714 83.52 39.514 Q 82.32 38.814 80.62 39.064 Q 78.92 39.314 76.92 41.014 Q 73.82 43.614 71.52 47.464 Q 69.22 51.314 67.02 56.214 Q 65.52 59.814 66.37 61.964 Q 67.22 64.114 70.07 63.464 Q 72.92 62.814 77.22 58.214 Z M 297.42 58.214 Q 299.82 55.514 301.27 53.114 Q 302.72 50.714 304.02 47.014 Q 304.42 45.914 304.52 44.264 Q 304.62 42.614 304.47 41.164 Q 304.32 39.714 303.72 39.514 Q 302.52 38.814 300.82 39.064 Q 299.12 39.314 297.12 41.014 Q 294.02 43.614 291.72 47.464 Q 289.42 51.314 287.22 56.214 Q 285.72 59.814 286.57 61.964 Q 287.42 64.114 290.27 63.464 Q 293.12 62.814 297.42 58.214 Z M 549.22 58.214 Q 551.62 55.514 553.07 53.114 Q 554.52 50.714 555.82 47.014 Q 556.22 45.914 556.32 44.264 Q 556.42 42.614 556.27 41.164 Q 556.12 39.714 555.52 39.514 Q 554.32 38.814 552.62 39.064 Q 550.92 39.314 548.92 41.014 Q 545.82 43.614 543.52 47.464 Q 541.22 51.314 539.02 56.214 Q 537.52 59.814 538.37 61.964 Q 539.22 64.114 542.07 63.464 Q 544.92 62.814 549.22 58.214 Z M 584.52 58.214 Q 586.92 55.514 588.37 53.114 Q 589.82 50.714 591.12 47.014 Q 591.52 45.914 591.62 44.264 Q 591.72 42.614 591.57 41.164 Q 591.42 39.714 590.82 39.514 Q 589.62 38.814 587.92 39.064 Q 586.22 39.314 584.22 41.014 Q 581.12 43.614 578.82 47.464 Q 576.52 51.314 574.32 56.214 Q 572.82 59.814 573.67 61.964 Q 574.52 64.114 577.37 63.464 Q 580.22 62.814 584.52 58.214 Z M 406.52 61.114 Q 407.92 60.814 409.27 60.014 Q 410.62 59.214 412.12 58.114 Q 415.12 55.814 417.32 53.914 Q 419.52 52.014 420.22 48.114 Q 420.42 46.214 419.87 45.064 Q 419.32 43.914 418.12 42.914 Q 416.92 42.114 414.87 42.264 Q 412.82 42.414 410.62 44.414 Q 408.22 46.614 405.97 50.314 Q 403.72 54.014 402.62 59.414 Q 402.42 60.414 403.22 61.014 Q 404.02 61.614 406.52 61.114 Z M 612.62 61.114 Q 614.02 60.814 615.37 60.014 Q 616.72 59.214 618.22 58.114 Q 621.22 55.814 623.42 53.914 Q 625.62 52.014 626.32 48.114 Q 626.52 46.214 625.97 45.064 Q 625.42 43.914 624.22 42.914 Q 623.02 42.114 620.97 42.264 Q 618.92 42.414 616.72 44.414 Q 614.32 46.614 612.07 50.314 Q 609.82 54.014 608.72 59.414 Q 608.52 60.414 609.32 61.014 Q 610.12 61.614 612.62 61.114 Z M 138.92 57.414 Q 140.92 57.314 142.72 56.614 Q 144.52 55.914 146.22 54.264 Q 147.92 52.614 149.62 50.014 Q 151.32 47.614 152.02 44.964 Q 152.72 42.314 152.52 39.814 Q 152.42 38.214 152.02 37.714 Q 151.62 37.214 150.32 37.414 Q 148.42 37.714 146.12 39.464 Q 143.82 41.214 141.82 43.814 Q 140.32 45.814 139.32 48.614 Q 138.32 51.614 138.12 54.314 Q 137.92 57.014 138.92 57.414 Z M 176.42 26.314 Q 175.42 26.414 175.12 26.314 Q 174.82 26.214 174.12 25.614 Q 174.02 24.914 174.32 24.314 Q 174.62 23.714 175.12 23.014 Q 176.32 21.014 177.87 18.264 Q 179.42 15.514 179.92 14.014 Q 180.12 12.914 180.57 11.164 Q 181.02 9.414 181.02 7.514 Q 181.02 7.014 181.07 6.314 Q 181.12 5.614 181.42 5.064 Q 181.72 4.514 182.22 4.814 Q 183.12 5.214 184.17 5.764 Q 185.22 6.314 185.87 7.014 Q 186.52 7.714 186.32 8.814 Q 186.12 11.214 185.32 13.264 Q 184.52 15.314 183.92 17.314 Q 183.32 19.514 181.92 21.414 Q 180.52 23.314 178.82 25.314 Q 178.92 25.714 178.22 25.814 Q 177.52 25.914 176.42 26.314 Z" vector-effect="non-scaling-stroke"/></g></svg>